<?xml version="1.0" encoding="UTF-8" standalone="no"?>
<!DOCTYPE svg PUBLIC "-//W3C//DTD SVG 1.1//EN"
 "http://www.w3.org/Graphics/SVG/1.1/DTD/svg11.dtd">
<!-- Generated by graphviz version 2.36.0 (20140111.2315)
 -->
<!-- Title: G Pages: 1 -->
<svg width="150pt" height="1452pt"
 viewBox="0.00 0.00 150.00 1452.00" xmlns="http://www.w3.org/2000/svg" xmlns:xlink="http://www.w3.org/1999/xlink">
<g id="graph0" class="graph" transform="scale(1 1) rotate(0) translate(4 1448)">
<title>G</title>
<polygon fill="white" stroke="none" points="-4,4 -4,-1448 146,-1448 146,4 -4,4"/>
<!-- base_link -->
<g id="node1" class="node"><title>base_link</title>
<polygon fill="none" stroke="black" points="85,-1444 17,-1444 17,-1408 85,-1408 85,-1444"/>
<text text-anchor="middle" x="51" y="-1422.3" font-family="Times,serif" font-size="14.00">base_link</text>
</g>
<!-- joint_s -->
<g id="node10" class="node"><title>joint_s</title>
<ellipse fill="none" stroke="blue" cx="51" cy="-1324" rx="34.1708" ry="18"/>
<text text-anchor="middle" x="51" y="-1320.3" font-family="Times,serif" font-size="14.00" fill="blue">joint_s</text>
</g>
<!-- base_link&#45;&gt;joint_s -->
<g id="edge1" class="edge"><title>base_link&#45;&gt;joint_s</title>
<path fill="none" stroke="black" d="M51,-1407.58C51,-1392.38 51,-1370.07 51,-1352.46"/>
<polygon fill="black" stroke="black" points="54.5001,-1352.22 51,-1342.22 47.5001,-1352.22 54.5001,-1352.22"/>
<text text-anchor="middle" x="89" y="-1378.8" font-family="Times,serif" font-size="14.00">xyz: 0 0 0.41 </text>
<text text-anchor="middle" x="89" y="-1363.8" font-family="Times,serif" font-size="14.00">rpy: 0 &#45;0 0</text>
</g>
<!-- link_s -->
<g id="node2" class="node"><title>link_s</title>
<polygon fill="none" stroke="black" points="78,-1268 24,-1268 24,-1232 78,-1232 78,-1268"/>
<text text-anchor="middle" x="51" y="-1246.3" font-family="Times,serif" font-size="14.00">link_s</text>
</g>
<!-- joint_l -->
<g id="node11" class="node"><title>joint_l</title>
<ellipse fill="none" stroke="blue" cx="51" cy="-1148" rx="33.1991" ry="18"/>
<text text-anchor="middle" x="51" y="-1144.3" font-family="Times,serif" font-size="14.00" fill="blue">joint_l</text>
</g>
<!-- link_s&#45;&gt;joint_l -->
<g id="edge3" class="edge"><title>link_s&#45;&gt;joint_l</title>
<path fill="none" stroke="black" d="M51,-1231.58C51,-1216.38 51,-1194.07 51,-1176.46"/>
<polygon fill="black" stroke="black" points="54.5001,-1176.22 51,-1166.22 47.5001,-1176.22 54.5001,-1176.22"/>
<text text-anchor="middle" x="80.5" y="-1202.8" font-family="Times,serif" font-size="14.00">xyz: 0 0 0 </text>
<text text-anchor="middle" x="80.5" y="-1187.8" font-family="Times,serif" font-size="14.00">rpy: 0 &#45;0 0</text>
</g>
<!-- link_l -->
<g id="node3" class="node"><title>link_l</title>
<polygon fill="none" stroke="black" points="78,-1092 24,-1092 24,-1056 78,-1056 78,-1092"/>
<text text-anchor="middle" x="51" y="-1070.3" font-family="Times,serif" font-size="14.00">link_l</text>
</g>
<!-- joint_e -->
<g id="node12" class="node"><title>joint_e</title>
<ellipse fill="none" stroke="blue" cx="51" cy="-972" rx="35.1455" ry="18"/>
<text text-anchor="middle" x="51" y="-968.3" font-family="Times,serif" font-size="14.00" fill="blue">joint_e</text>
</g>
<!-- link_l&#45;&gt;joint_e -->
<g id="edge5" class="edge"><title>link_l&#45;&gt;joint_e</title>
<path fill="none" stroke="black" d="M51,-1055.58C51,-1040.38 51,-1018.07 51,-1000.46"/>
<polygon fill="black" stroke="black" points="54.5001,-1000.22 51,-990.219 47.5001,-1000.22 54.5001,-1000.22"/>
<text text-anchor="middle" x="89" y="-1026.8" font-family="Times,serif" font-size="14.00">xyz: 0 0 0.49 </text>
<text text-anchor="middle" x="89" y="-1011.8" font-family="Times,serif" font-size="14.00">rpy: 0 &#45;0 0</text>
</g>
<!-- link_e -->
<g id="node4" class="node"><title>link_e</title>
<polygon fill="none" stroke="black" points="78,-916 24,-916 24,-880 78,-880 78,-916"/>
<text text-anchor="middle" x="51" y="-894.3" font-family="Times,serif" font-size="14.00">link_e</text>
</g>
<!-- joint_u -->
<g id="node13" class="node"><title>joint_u</title>
<ellipse fill="none" stroke="blue" cx="51" cy="-796" rx="35.6194" ry="18"/>
<text text-anchor="middle" x="51" y="-792.3" font-family="Times,serif" font-size="14.00" fill="blue">joint_u</text>
</g>
<!-- link_e&#45;&gt;joint_u -->
<g id="edge7" class="edge"><title>link_e&#45;&gt;joint_u</title>
<path fill="none" stroke="black" d="M51,-879.581C51,-864.382 51,-842.067 51,-824.464"/>
<polygon fill="black" stroke="black" points="54.5001,-824.219 51,-814.219 47.5001,-824.219 54.5001,-824.219"/>
<text text-anchor="middle" x="80.5" y="-850.8" font-family="Times,serif" font-size="14.00">xyz: 0 0 0 </text>
<text text-anchor="middle" x="80.5" y="-835.8" font-family="Times,serif" font-size="14.00">rpy: 0 &#45;0 0</text>
</g>
<!-- link_u -->
<g id="node5" class="node"><title>link_u</title>
<polygon fill="none" stroke="black" points="78,-740 24,-740 24,-704 78,-704 78,-740"/>
<text text-anchor="middle" x="51" y="-718.3" font-family="Times,serif" font-size="14.00">link_u</text>
</g>
<!-- joint_r -->
<g id="node14" class="node"><title>joint_r</title>
<ellipse fill="none" stroke="blue" cx="51" cy="-620" rx="34.1708" ry="18"/>
<text text-anchor="middle" x="51" y="-616.3" font-family="Times,serif" font-size="14.00" fill="blue">joint_r</text>
</g>
<!-- link_u&#45;&gt;joint_r -->
<g id="edge9" class="edge"><title>link_u&#45;&gt;joint_r</title>
<path fill="none" stroke="black" d="M51,-703.581C51,-688.382 51,-666.067 51,-648.464"/>
<polygon fill="black" stroke="black" points="54.5001,-648.219 51,-638.219 47.5001,-648.219 54.5001,-648.219"/>
<text text-anchor="middle" x="89" y="-674.8" font-family="Times,serif" font-size="14.00">xyz: 0 0 0.42 </text>
<text text-anchor="middle" x="89" y="-659.8" font-family="Times,serif" font-size="14.00">rpy: 0 &#45;0 0</text>
</g>
<!-- link_r -->
<g id="node6" class="node"><title>link_r</title>
<polygon fill="none" stroke="black" points="78,-564 24,-564 24,-528 78,-528 78,-564"/>
<text text-anchor="middle" x="51" y="-542.3" font-family="Times,serif" font-size="14.00">link_r</text>
</g>
<!-- joint_b -->
<g id="node15" class="node"><title>joint_b</title>
<ellipse fill="none" stroke="blue" cx="51" cy="-444" rx="35.6194" ry="18"/>
<text text-anchor="middle" x="51" y="-440.3" font-family="Times,serif" font-size="14.00" fill="blue">joint_b</text>
</g>
<!-- link_r&#45;&gt;joint_b -->
<g id="edge11" class="edge"><title>link_r&#45;&gt;joint_b</title>
<path fill="none" stroke="black" d="M51,-527.581C51,-512.382 51,-490.067 51,-472.464"/>
<polygon fill="black" stroke="black" points="54.5001,-472.219 51,-462.219 47.5001,-472.219 54.5001,-472.219"/>
<text text-anchor="middle" x="80.5" y="-498.8" font-family="Times,serif" font-size="14.00">xyz: 0 0 0 </text>
<text text-anchor="middle" x="80.5" y="-483.8" font-family="Times,serif" font-size="14.00">rpy: 0 &#45;0 0</text>
</g>
<!-- link_b -->
<g id="node7" class="node"><title>link_b</title>
<polygon fill="none" stroke="black" points="78,-388 24,-388 24,-352 78,-352 78,-388"/>
<text text-anchor="middle" x="51" y="-366.3" font-family="Times,serif" font-size="14.00">link_b</text>
</g>
<!-- joint_t -->
<g id="node16" class="node"><title>joint_t</title>
<ellipse fill="none" stroke="blue" cx="51" cy="-268" rx="33.1991" ry="18"/>
<text text-anchor="middle" x="51" y="-264.3" font-family="Times,serif" font-size="14.00" fill="blue">joint_t</text>
</g>
<!-- link_b&#45;&gt;joint_t -->
<g id="edge13" class="edge"><title>link_b&#45;&gt;joint_t</title>
<path fill="none" stroke="black" d="M51,-351.581C51,-336.382 51,-314.067 51,-296.464"/>
<polygon fill="black" stroke="black" points="54.5001,-296.219 51,-286.219 47.5001,-296.219 54.5001,-296.219"/>
<text text-anchor="middle" x="89" y="-322.8" font-family="Times,serif" font-size="14.00">xyz: 0 0 0.18 </text>
<text text-anchor="middle" x="89" y="-307.8" font-family="Times,serif" font-size="14.00">rpy: 0 &#45;0 0</text>
</g>
<!-- link_t -->
<g id="node8" class="node"><title>link_t</title>
<polygon fill="none" stroke="black" points="78,-212 24,-212 24,-176 78,-176 78,-212"/>
<text text-anchor="middle" x="51" y="-190.3" font-family="Times,serif" font-size="14.00">link_t</text>
</g>
<!-- link_t&#45;tool0 -->
<g id="node17" class="node"><title>link_t&#45;tool0</title>
<ellipse fill="none" stroke="blue" cx="51" cy="-92" rx="51.4931" ry="18"/>
<text text-anchor="middle" x="51" y="-88.3" font-family="Times,serif" font-size="14.00" fill="blue">link_t&#45;tool0</text>
</g>
<!-- link_t&#45;&gt;link_t&#45;tool0 -->
<g id="edge15" class="edge"><title>link_t&#45;&gt;link_t&#45;tool0</title>
<path fill="none" stroke="black" d="M51,-175.581C51,-160.382 51,-138.067 51,-120.464"/>
<polygon fill="black" stroke="black" points="54.5001,-120.219 51,-110.219 47.5001,-120.219 54.5001,-120.219"/>
<text text-anchor="middle" x="96.5" y="-146.8" font-family="Times,serif" font-size="14.00">xyz: 0 0 0 </text>
<text text-anchor="middle" x="96.5" y="-131.8" font-family="Times,serif" font-size="14.00">rpy: 0 0 3.14159</text>
</g>
<!-- tool0 -->
<g id="node9" class="node"><title>tool0</title>
<polygon fill="none" stroke="black" points="78,-36 24,-36 24,-0 78,-0 78,-36"/>
<text text-anchor="middle" x="51" y="-14.3" font-family="Times,serif" font-size="14.00">tool0</text>
</g>
<!-- joint_s&#45;&gt;link_s -->
<g id="edge2" class="edge"><title>joint_s&#45;&gt;link_s</title>
<path fill="none" stroke="black" d="M51,-1305.94C51,-1297.81 51,-1287.88 51,-1278.7"/>
<polygon fill="black" stroke="black" points="54.5001,-1278.44 51,-1268.44 47.5001,-1278.44 54.5001,-1278.44"/>
</g>
<!-- joint_l&#45;&gt;link_l -->
<g id="edge4" class="edge"><title>joint_l&#45;&gt;link_l</title>
<path fill="none" stroke="black" d="M51,-1129.94C51,-1121.81 51,-1111.88 51,-1102.7"/>
<polygon fill="black" stroke="black" points="54.5001,-1102.44 51,-1092.44 47.5001,-1102.44 54.5001,-1102.44"/>
</g>
<!-- joint_e&#45;&gt;link_e -->
<g id="edge6" class="edge"><title>joint_e&#45;&gt;link_e</title>
<path fill="none" stroke="black" d="M51,-953.937C51,-945.807 51,-935.876 51,-926.705"/>
<polygon fill="black" stroke="black" points="54.5001,-926.441 51,-916.441 47.5001,-926.441 54.5001,-926.441"/>
</g>
<!-- joint_u&#45;&gt;link_u -->
<g id="edge8" class="edge"><title>joint_u&#45;&gt;link_u</title>
<path fill="none" stroke="black" d="M51,-777.937C51,-769.807 51,-759.876 51,-750.705"/>
<polygon fill="black" stroke="black" points="54.5001,-750.441 51,-740.441 47.5001,-750.441 54.5001,-750.441"/>
</g>
<!-- joint_r&#45;&gt;link_r -->
<g id="edge10" class="edge"><title>joint_r&#45;&gt;link_r</title>
<path fill="none" stroke="black" d="M51,-601.937C51,-593.807 51,-583.876 51,-574.705"/>
<polygon fill="black" stroke="black" points="54.5001,-574.441 51,-564.441 47.5001,-574.441 54.5001,-574.441"/>
</g>
<!-- joint_b&#45;&gt;link_b -->
<g id="edge12" class="edge"><title>joint_b&#45;&gt;link_b</title>
<path fill="none" stroke="black" d="M51,-425.937C51,-417.807 51,-407.876 51,-398.705"/>
<polygon fill="black" stroke="black" points="54.5001,-398.441 51,-388.441 47.5001,-398.441 54.5001,-398.441"/>
</g>
<!-- joint_t&#45;&gt;link_t -->
<g id="edge14" class="edge"><title>joint_t&#45;&gt;link_t</title>
<path fill="none" stroke="black" d="M51,-249.937C51,-241.807 51,-231.876 51,-222.705"/>
<polygon fill="black" stroke="black" points="54.5001,-222.441 51,-212.441 47.5001,-222.441 54.5001,-222.441"/>
</g>
<!-- link_t&#45;tool0&#45;&gt;tool0 -->
<g id="edge16" class="edge"><title>link_t&#45;tool0&#45;&gt;tool0</title>
<path fill="none" stroke="black" d="M51,-73.937C51,-65.8072 51,-55.8761 51,-46.7047"/>
<polygon fill="black" stroke="black" points="54.5001,-46.4406 51,-36.4407 47.5001,-46.4407 54.5001,-46.4406"/>
</g>
</g>
</svg>
